<svg xmlns="http://www.w3.org/2000/svg" xmlns:xlink="http://www.w3.org/1999/xlink" width="535pt" height="350pt" viewBox="0 0 535 350" version="1.1">
	<defs>
		<style type="text/css">
			.land
			{
				fill: #4d023a;
				fill-opacity: 1;
				stroke:white;
				stroke-opacity: 1;
				stroke-width:2;
				cursor: pointer;
				transition: .3s;
			}
			.land:hover, .land.active {
				fill: #fbb400;
			}
			.water
			{
				fill: #86c4e6;
				fill-opacity: 1;
				stroke:white;
				stroke-opacity: 1;
				stroke-width:0.5;
			}
		</style>
	</defs>
	<g id="surface3">
	<path title="Aral Sea" class="water" d="M 134.182009 8.267188 L 130.781776 14.690156 L 129.781367 18.118437 L 129.1684 21.939844 L 131.192348 24.761094 L 132.192757 27.778906 L 130.382769 30.397813 L 127.560806 35.629844 L 126.149825 37.838281 L 128.370386 36.838125 L 129.977979 34.820469 L 131.38896 33.820312 L 135.211332 34.421563 L 137.628505 35.022813 L 137.8309 38.24875 L 135.008937 38.647656 L 134.812325 46.8975 L 132.799942 45.891562 L 130.989953 46.302031 L 129.1684 48.308125 L 129.781367 50.730469 L 133.002336 53.337812 L 136.020911 55.147344 L 135.008937 58.379062 L 135.008937 62.402812 L 133.597956 65.420625 L 130.781776 66.432344 L 128.971787 65.420625 L 127.768984 62.599375 L 126.149825 62.599375 L 126.149825 66.021875 L 127.358411 67.629063 L 127.560806 73.872812 L 127.971379 77.902344 L 130.989953 79.711875 L 133.198949 77.301094 L 135.621904 73.069219 L 137.431893 69.039687 L 139.8375 67.629063 L 142.861857 69.242031 L 145.27903 68.438438 L 144.469451 65.617188 L 143.260864 62.998281 L 142.46285 58.379062 L 143.05847 55.760156 L 144.469451 54.349531 L 146.279439 54.147188 L 148.5 54.147188 L 149.500409 49.921094 L 152.322371 43.879688 L 155.537558 38.451094 L 157.561507 32.612031 L 157.197196 24.8825 L 213.977629 65.871562 L 210.091647 66.23 L 211.097839 68.241875 L 212.711215 69.6525 L 213.717407 71.057344 L 212.907827 74.87875 L 210.091647 79.908438 L 205.459696 84.539219 L 199.220152 89.580469 L 197.612558 92.997187 L 198.61875 94.8125 L 197.410164 96.622031 L 193.992582 96.622031 L 193.39118 99.240938 L 186.342056 102.062187 L 181.50771 103.669375 L 176.482535 104.669531 L 172.850993 103.46125 L 170.83861 104.068281 L 167.022021 104.871875 L 165.807652 103.871719 L 163.390479 102.461094 L 159.770502 104.669531 L 155.340946 104.467187 L 149.298014 103.871719 L 146.279439 103.46125 L 143.671437 101.252813 L 138.432301 100.449219 L 136.622313 98.628125 L 134.407535 97.627969 L 133.401343 93.997344 L 136.217523 92.187812 L 138.027512 89.979375 L 137.229498 86.34875 L 135.621904 85.348594 L 133.002336 86.562656 L 127.971379 88.169844 L 126.149825 88.967656 L 123.738435 88.771094 L 122.130841 89.17 L 121.118867 91.187656 L 119.112266 90.580625 L 116.492699 88.56875 L 113.468341 88.372187 L 109.449357 86.759219 L 106.430783 85.348594 L 104.210222 82.729687 L 102.001227 77.497656 L 101.60222 72.259844 L 104.620794 63.807656 L 105.019801 61.18875 L 103.007418 57.569688 L 101.798832 54.748438 L 101.60222 48.712812 L 102.001227 44.082031 L 104.007827 38.647656 L 107.032185 33.820312 L 108.240771 28.177812 L 110.860339 25.558906 L 111.062734 19.731406 L 113.069334 16.51125 L 116.897488 13.077187 L 117.099883 8.249844 L 118.707477 5.029687 L 118.880958 1.48 L 122.732243 0 Z M 134.182009 8.267188 " transform="matrix(0.675505,0,0,0.675676,0,0)"/>
	<path id="place1" title="Andijon" class="land" d="M 750.098481 321.547344 L 749.98861 317.939844 L 749.682126 317.101562 L 745.668925 315.818125 L 743.419451 315.367188 L 743.18236 315.540625 L 742.852745 315.540625 L 733.600409 313.968125 L 731.3625 310.510938 L 730.737967 309.857656 L 727.719393 308.3025 L 723.561624 307.70125 L 723.359229 309.152344 L 720.329089 304.671875 L 722.2316 303.457812 L 720.028388 300.792656 L 722.058119 298.890625 L 723.249357 298.092812 L 731.842465 295.901719 L 735.520269 295.930625 L 736.092757 296.190781 L 736.821379 296.751562 L 740.15222 297.491562 L 741.609463 297.641875 L 746.49007 297.2025 L 747.022079 296.930781 L 747.421086 296.479844 L 748.681717 290.611875 L 748.918808 290.762187 L 749.589603 290.750625 L 752.440479 289.397812 L 753.198014 289.218594 L 754.418166 288.299375 L 755.551577 287.062187 L 756.23972 286.992813 L 756.39007 287.172031 L 757.708528 287.518906 L 758.680023 288.201094 L 759.570561 288.247344 L 760.362792 288.652031 L 761.218633 288.559531 L 761.999299 288.727188 L 762.658528 289.050937 L 762.91875 290.21875 L 762.820444 290.872031 L 761.999299 292.3925 L 762.010864 292.612188 L 762.190129 292.831875 L 762.340479 292.80875 L 762.797313 292.091875 L 763.028621 292.039844 L 763.271495 292.010938 L 763.739895 292.247969 L 764.162033 292.641094 L 765.480491 294.901563 L 766.058762 295.589531 L 766.261157 297.589844 L 767.030257 298.139063 L 768.227278 298.491719 L 769.557301 299.139219 L 771.130199 299.717344 L 771.679556 299.520781 L 773.50111 299.809844 L 774.437909 299.410937 L 775.35736 299.220156 L 776.03972 299.428281 L 778.248715 298.8675 L 778.971554 298.890625 L 779.792699 299.341563 L 781.307769 301.012344 L 781.689428 302.05875 L 781.857126 302.209063 L 782.522138 302.370937 L 783.031016 302.330469 L 783.67868 302.081875 L 783.869509 301.78125 L 784.51139 301.451719 L 784.910397 300.971875 L 785.488668 300.94875 L 785.841414 300.740625 L 785.691063 300.197187 L 785.112792 299.798281 L 784.760047 299.312656 L 785.187967 297.890469 L 785.419276 297.659219 L 785.847196 297.670781 L 786.859171 299.127656 L 787.761273 299.33 L 788.888902 300.087344 L 789.837266 299.572812 L 791.340771 299.642187 L 791.768692 300.017969 L 792 300.989219 L 791.572079 302.729375 L 791.138376 303.342188 L 790.687325 303.648594 L 787.807535 304.862656 L 786.147897 305.099688 L 785.517582 305.972656 L 784.36104 306.770469 L 782.961624 307.550937 L 782.152044 307.718594 L 782.1 307.949844 L 781.232593 308.152187 L 779.891005 308.892187 L 778.890596 309.851875 L 777.352395 310.349063 L 776.218984 310.19875 L 775.432535 310.308594 L 775.120269 310.672813 L 775.068224 310.990781 L 775.212792 311.430156 L 775.588668 311.892656 L 775.617582 312.227969 L 774.877395 312.840781 L 774.779089 313.262812 L 774.958353 315.997344 L 774.88896 317.072656 L 774.241297 317.280781 L 773.720853 316.980156 L 772.760923 315.997344 L 771.257418 315.662031 L 770.939369 316.032031 L 770.887325 316.789375 L 770.019918 317.419531 L 769.881133 317.662344 L 769.667173 319.061406 L 769.088902 320.130938 L 768.418107 320.292812 L 768.001752 320.252344 L 766.608119 319.130781 L 765.139311 319.061406 L 764.451168 318.679844 L 763.5375 317.812656 L 763.028621 317.627656 L 762.352044 317.9225 L 762.138084 317.882031 L 760.767582 316.21125 L 760.218224 315.211094 L 758.830374 314.0375 L 758.431367 313.8525 L 757.448306 314.280312 L 756.349591 314.291875 L 755.950584 314.829531 L 756.100935 315.112813 L 757.22278 315.488594 L 757.540829 315.800781 L 757.997664 316.829844 L 759.050117 317.147812 L 759.460689 317.708594 L 759.42021 318.257812 L 759.067465 318.6625 L 758.038143 318.760781 L 757.772138 318.951563 L 757.598657 319.460312 L 757.737442 319.91125 L 758.818808 319.801406 L 759.07903 320.171406 L 759.310339 321.639844 L 759.801869 322.171719 L 760.03896 322.9175 L 758.899766 325.588437 L 759.177336 326.420937 L 759.107944 327.062656 L 758.940245 327.21875 L 758.639544 327.282344 L 757.159171 326.900781 L 756.708119 326.629062 L 755.158353 325.027656 L 754.510689 324.570938 L 754.221554 324.472656 L 753.417757 324.7675 L 753.099708 324.559375 L 752.602395 323.848281 L 752.307477 323.640156 L 751.411157 323.651719 L 751.139369 323.541875 L 750.960105 323.137187 L 751.28972 322.009844 L 751.231893 321.76125 L 750.780841 321.489531 Z M 750.098481 321.547344 " transform="matrix(0.675505,0,0,0.675676,0,0)"/>
	<path id="place2" title="Buxoro" class="land" d="M 421.02757 384.510938 L 417.257243 388.101094 L 413.909054 390.321094 L 413.342348 390.430937 L 408.941706 395.142656 L 408.58896 396.171719 L 408.739311 397.027344 L 409.450584 398.229844 L 410.277512 399.108594 L 411.098657 400.282188 L 411.329965 400.790937 L 411.052395 401.397969 L 392.929381 408.040625 L 387.320152 414.272812 L 385.192114 411.971875 L 384.781542 411.937187 L 383.601869 412.237813 L 381.502745 413.451875 L 380.502336 413.712031 L 379.449883 413.729375 L 378.067815 413.550156 L 377.217757 413.128125 L 374.268575 410.7 L 371.40035 408.699687 L 364.611449 403.479219 L 362.789895 402.311406 L 358.111682 398.871562 L 356.799007 397.582344 L 355.648248 396.189062 L 355.359112 395.558906 L 354.94854 395.188906 L 354.167874 393.9575 L 350.599942 390.500313 L 348.581776 388.349688 L 344.609054 385.54 L 340.231542 382.921094 L 335.778855 379.770312 L 331.540129 376.989531 L 321.2816 369.687813 L 314.319217 364.918281 L 299.989661 354.390625 L 298.809988 353.292188 L 297.902103 351.997187 L 297.740187 351.471094 L 297.537792 350.569219 L 297.601402 350.02 L 297.312266 349.320469 L 297.179264 347.56875 L 295.768283 345.499062 L 295.791414 344.851562 L 296.479556 343.660625 L 296.560514 341.030156 L 296.178855 340.018438 L 296.04007 338.792812 L 295.450234 336.752031 L 295.392407 335.607344 L 295.161098 334.838437 L 295.201577 334.237188 L 295.560105 333.329531 L 295.531192 332.317813 L 294.779439 330.982344 L 293.617114 329.930156 L 292.900058 328.872187 L 292.842231 328.357656 L 293.339544 326.819844 L 293.62868 325.351406 L 293.588201 325.039219 L 292.269743 324.518906 L 290.951285 323.680625 L 289.632827 322.229531 L 288.360631 321.657188 L 287.042173 320.79 L 286.637383 320.229219 L 292.917407 312.621094 L 297.508879 307.487344 L 298.30111 303.689062 L 298.330023 302.15125 L 297.647664 301.000781 L 291.737734 294.317656 L 288.499416 290.987656 L 299.440304 285.929062 L 285.660105 266.752656 L 286.221028 266.469375 L 289.887266 265.550156 L 303.441939 262.341563 L 304.48861 262.260625 L 307.831016 268.961094 L 309.218867 271.019219 L 311.370035 273.3375 L 313.758294 274.892656 L 317.297313 276.788906 L 318.87021 278.367188 L 320.951986 282.720469 L 322.351402 287.871562 L 322.918107 289.259062 L 323.802862 289.172344 L 324.248131 288.802344 L 326.289428 288.750313 L 329.45257 289.657969 L 334.830491 291.970469 L 343.307944 296.572344 L 353.138551 302.272656 L 355.260806 303.937656 L 355.821729 304.989844 L 356.157126 306.481406 L 355.677161 308.707187 L 359.077395 308.620469 L 361.720093 308.389219 L 362.269451 308.198438 L 367.647371 296.011562 L 368.688259 294.918906 L 370.879907 293.751094 L 371.758879 293.901406 L 373.430082 295.832344 L 373.528388 303.440469 L 389.719977 305.330938 L 389.910806 304.839531 L 390.731951 300.3475 L 391.298657 300.1625 L 396.318049 299.578594 L 400.111507 299.520781 L 402.378329 299.139219 L 403.511741 296.4625 L 404.228797 294.358125 L 404.679848 294.167344 L 405.651343 294.392812 L 406.437792 297.219844 L 408.577395 307.342812 L 409.722371 308.44125 L 410.520386 308.8575 L 411.549708 309.198594 L 420.177512 310.389531 L 426.110572 311.019687 L 434.079147 312.158594 L 432.679731 321.420156 L 428.689661 324.229844 L 428.521963 325.258906 L 427.070502 329.3925 L 423.722313 333.531875 L 423.080432 334.138906 L 422.13785 334.520469 L 418.292348 334.289219 L 415.389428 333.751562 L 413.382827 332.757187 L 412.561682 331.970937 L 410.560864 330.670156 L 408.50222 330.54875 L 407.391939 331.028594 L 407.027629 331.647187 L 407.391939 334.971406 L 406.940888 339.330469 L 405.651343 345.042344 L 403.118516 349.817656 L 400.990479 352.292031 L 396.589836 354.957187 L 395.699299 355.2925 L 394.282535 358.009687 L 398.550175 363.8025 L 399.741414 364.947187 L 406.802103 367.618125 L 407.877687 367.681719 L 411.081308 366.90125 L 415.990829 370.589687 L 420.379907 379.978437 L 420.738435 381.128906 Z M 421.02757 384.510938 " transform="matrix(0.675505,0,0,0.675676,0,0)"/>
	<path id="place3" title="Farg‘ona" class="land" d="M 673.54118 332.502813 L 673.639486 331.837969 L 673.408178 331.28875 L 672.667991 330.629687 L 669.759287 329.317344 L 668.128563 328.987813 L 667.128154 328.588906 L 666.810105 328.588906 L 665.908002 329.0225 L 665.480082 328.987813 L 665.017465 328.779688 L 664.68785 328.409688 L 664.231016 327.299688 L 663.941881 326.9875 L 663.658528 326.889219 L 663.508178 326.149219 L 662.600292 324.380156 L 662.542465 323.767344 L 662.669685 323.570781 L 663.479264 323.351094 L 664.479673 322.541719 L 665.670911 322.322031 L 666.769626 321.749687 L 668.822488 321.032812 L 669.620502 321.032812 L 670.088902 320.622344 L 670.210339 319.807187 L 670.649825 319.367813 L 670.78861 318.4775 L 670.979439 318.078594 L 671.378446 317.858906 L 671.968283 317.777969 L 672.737383 317.847344 L 673.217348 317.488906 L 673.940187 317.471563 L 674.368107 317.309687 L 675.241297 316.199687 L 676.351577 313.979688 L 676.710105 313.598125 L 677.357769 313.418906 L 678.040129 312.690469 L 678.549007 312.522812 L 678.699357 312.239531 L 679.10993 312.158594 L 679.520502 311.661406 L 680.491998 311.441719 L 680.891005 311.719219 L 681.209054 311.748125 L 681.261098 311.089063 L 681.081834 310.100469 L 681.388318 309.869219 L 681.671671 310.117813 L 682.3309 310.077344 L 682.770386 309.499219 L 683.071086 308.499062 L 683.649357 307.967188 L 683.707185 307.712812 L 684.048364 307.620313 L 684.308586 307.360156 L 689.177629 306.111406 L 692.548949 305.498594 L 699.308937 305.400312 L 699.308937 305.62 L 698.938843 306.140312 L 697.579907 307.799531 L 698.412617 309.770938 L 700.280432 311.6325 L 705.872313 314.36125 L 706.27132 314.442187 L 707.01729 314.020156 L 710.041647 311.17 L 710.799182 310.181406 L 711.539369 308.730312 L 712.782652 307.9325 L 716.888376 305.700938 L 720.329089 304.671875 L 723.359229 309.152344 L 723.561624 307.70125 L 727.719393 308.3025 L 730.737967 309.857656 L 731.3625 310.510938 L 733.600409 313.968125 L 742.852745 315.540625 L 743.18236 315.540625 L 743.419451 315.367188 L 745.668925 315.818125 L 749.682126 317.101562 L 749.98861 317.939844 L 750.098481 321.547344 L 749.612734 321.587812 L 748.53715 321.327656 L 748.149708 321.408594 L 747.640829 322.790312 L 747.340129 323.2875 L 746.709813 323.88875 L 746.247196 324.131562 L 745.882886 324.200938 L 745.287266 323.998594 L 744.402512 323.408906 L 743.939895 324.449531 L 744.390946 326.160781 L 744.252161 326.501875 L 743.61028 327.207187 L 743.540888 327.779531 L 743.251752 328.178437 L 741.88125 328.588906 L 740.840362 329.930156 L 740.331484 330.311719 L 739.527687 331.439062 L 738.342231 331.959375 L 737.411215 332.820781 L 737.289778 333.080938 L 737.497956 333.578125 L 738.481016 333.809375 L 739.458294 334.699687 L 739.388902 335.191094 L 738.278621 336.220156 L 737.821787 337.30125 L 737.532652 337.619219 L 736.86764 337.94875 L 736.24889 337.931406 L 734.982477 337.012187 L 732.958528 336.538125 L 732.478563 336.93125 L 732.351343 337.411094 L 732.397605 337.682813 L 733.137792 338.810156 L 733.160923 339.342031 L 732.409171 339.839219 L 731.871379 339.810313 L 729.37903 341.400156 L 728.060572 341.822187 L 727.141121 342.48125 L 726.788376 342.539062 L 726.53972 342.400312 L 726.082886 341.550469 L 725.649182 341.041719 L 725.412091 340.972344 L 725.04778 340.567656 L 724.89743 340.209219 L 725.070911 338.307187 L 724.880082 337.497813 L 724.197722 336.590156 L 723.677278 336.231719 L 722.908178 336.150781 L 721.682243 336.272187 L 721.572371 337.110469 L 721.809463 338.538437 L 721.601285 339.492344 L 721.682243 340.047344 L 721.560806 340.249687 L 721.271671 340.220781 L 720.462091 339.261094 L 719.461682 339.261094 L 718.912325 339.451875 L 717.992874 338.867969 L 716.217582 338.081719 L 715.997839 337.538281 L 716.188668 336.19125 L 715.951577 335.670937 L 714.650467 335.642031 L 713.112266 335.237344 L 712.481951 334.740156 L 711.389019 333.50875 L 710.978446 333.242813 L 710.492699 333.0925 L 709.989603 333.312187 L 709.370853 333.37 L 709.208937 333.057813 L 709.30146 332.670469 L 708.977629 332.421875 L 707.450993 333.057813 L 706.699241 333.161875 L 706.427453 333.057813 L 706.282886 332.791875 L 706.259755 331.791719 L 704.721554 331.901563 L 703.709579 331.560469 L 702.709171 331.467969 L 701.882243 331.577812 L 700.500175 332.040312 L 699.517114 332.017187 L 698.90993 332.231094 L 696.348189 334.011719 L 694.399416 334.358594 L 692.329206 335.260469 L 691.878154 335.549531 L 691.739369 335.82125 L 692.051636 336.740469 L 691.941764 337.711719 L 689.559287 337.781094 L 687.610514 338.127969 L 687.338727 338.04125 L 685.63861 339.301562 L 683.169393 340.4 L 681.590713 340.729531 L 680.191297 340.850937 L 677.06285 341.538906 L 676.23014 341.197812 L 675.050467 339.05875 L 674.732418 338.18 L 674.009579 337.792656 L 673.47757 336.850312 L 673.610572 336.740469 L 673.679965 335.462812 L 674.050058 334.468437 L 673.500701 332.7225 Z M 673.54118 332.502813 " transform="matrix(0.675505,0,0,0.675676,0,0)"/>
	<path id="place4" title="Jizzax" class="land" d="M 580.399065 375.839063 L 579.9191 376.087656 L 579.710923 377.63125 L 579.392874 378.64875 L 578.571729 379.377187 L 577.490362 379.001406 L 576.339603 379.261562 L 573.378855 378.7875 L 571.522605 379.602656 L 571.129381 379.48125 L 570.33715 378.718125 L 569.828271 378.481094 L 568.411507 378.157344 L 566.641998 377.949219 L 565.381367 378.087969 L 564.45035 378.348125 L 563.710164 378.220937 L 562.692407 377.63125 L 561.95222 377.729531 L 559.720093 377.567656 L 558.748598 377.087812 L 558.008411 376.902812 L 556.921262 376.989531 L 556.31986 376.839219 L 555.221145 375.989375 L 554.307477 375.619375 L 552.942757 375.538437 L 552.017523 375.6425 L 550.149708 374.798437 L 549.189778 373.919688 L 547.80771 373.83875 L 545.378972 372.191094 L 544.679264 372.578438 L 543.470678 372.902187 L 541.539252 372.069687 L 541.140245 372.058125 L 540.261273 373.081406 L 539.168341 373.457187 L 538.532243 373.908125 L 537.589661 375.440156 L 537.01139 375.602031 L 535.577278 375.630938 L 531.598773 377.1225 L 531.477336 377.798906 L 531.679731 379.411875 L 531.269159 379.920625 L 529.048598 379.371406 L 528.591764 379.48125 L 528.239019 380.279063 L 528.221671 381.591406 L 528.53972 382.100156 L 524.011857 378.27875 L 522.982535 377.232344 L 522.329089 376.272656 L 522.120911 375.31875 L 522.09778 371.162031 L 522.201869 370.792031 L 525.422839 365.548437 L 526.180374 364.640781 L 526.868516 364.097344 L 529.03125 363.068281 L 530.569451 362.6925 L 531.870561 362.542188 L 531.789603 361.518906 L 530.719801 355.558437 L 530.511624 355.321406 L 518.63972 352.789219 L 513.828505 352.390312 L 511.712033 351.5925 L 505.877278 347.66125 L 505.530315 343.949687 L 505.628621 343.602812 L 506.871904 343.307969 L 507.108995 343.151875 L 507.560047 341.810625 L 507.629439 341.00125 L 506.189544 338.191562 L 504.327512 336.532344 L 503.489019 332.427656 L 503.390713 328.502187 L 503.529498 327.7275 L 504.362208 325.900625 L 504.350643 324.802188 L 503.390713 322.622656 L 498.781893 322.518594 L 490.992582 321.599375 L 491.721203 319.807187 L 496.150759 311.222031 L 499.26764 305.8975 L 499.550993 305.1575 L 497.978096 298.300937 L 497.75257 297.769063 L 497.498131 297.537812 L 493.230491 296.491406 L 492.282126 295.9075 L 491.559287 294.641406 L 490.431659 283.998125 L 497.139603 283.778437 L 497.428738 280.847344 L 497.648481 280.887812 L 498.168925 276.129844 L 515.5691 277.442187 L 520.212617 277.9625 L 522.930491 277.968281 L 523.780549 278.529063 L 524.647956 278.662031 L 525.902804 278.251562 L 527.169217 278.049219 L 542.58014 278.5175 L 543.991121 279.8125 L 544.858528 280.037969 L 546.91139 282.529688 L 550.230666 285.611094 L 551.699474 284.310313 L 552.537967 285.50125 L 555.591238 283.518281 L 556.967523 284.8075 L 557.55736 284.547344 L 558.349591 285.021406 L 555.880374 285.5475 L 554.469393 287.0275 L 555.857243 290.478906 L 554.382652 291.947344 L 554.457827 297.167812 L 550.392582 297.318125 L 549.658178 299.601719 L 551.098072 301.602031 L 553.538376 302.278437 L 559.309521 305.677813 L 562.900584 309.707344 L 566.688259 311.048594 L 567.127745 311.430156 L 566.960047 314.26875 L 566.618867 314.881562 L 564.762617 314.7775 L 562.65771 315.320938 L 562.177745 320.211875 L 562.339661 320.477812 L 564.45035 319.460312 L 564.779965 319.362031 L 564.941881 319.558594 L 564.79153 320.3275 L 564.02243 322.327812 L 559.07243 333.37 L 558.870035 334.890469 L 559.020386 335.850156 L 559.361565 336.752031 L 560.020794 337.7175 L 560.338843 337.769531 L 566.890654 338.081719 L 571.458995 337.908281 L 575.477979 337.087344 L 577.76215 336.301094 L 584.892231 334.659219 L 585.198715 335.341406 L 584.192523 341.752813 L 582.642757 342.030312 L 582.550234 342.169062 L 579.658879 343.007344 L 579.421787 343.608594 L 580.277629 344.412188 L 582.897196 345.95 L 584.128914 345.921094 L 586.280082 345.470156 L 587.592757 344.909375 L 590.460981 344.1 L 591.692699 343.550781 L 595.121846 342.660469 L 596.798832 342.452344 L 599.950409 342.3425 L 600.788902 342.99 L 601.199474 344.267656 L 601.650526 346.649531 L 601.332477 347.308594 L 600.580724 347.372187 L 599.048306 347.007969 L 598.151986 347.002187 L 597.400234 347.031094 L 595.879381 347.377969 L 594.711273 348.2625 L 594.497313 349.297344 L 594.352745 349.41875 L 593.890129 349.158594 L 593.589428 347.869375 L 592.860806 346.770938 L 592.20736 346.672656 L 591.629089 346.869219 L 591.391998 347.1525 L 591.357301 347.678594 L 591.710047 348.250938 L 592.652629 349.1875 L 592.69889 349.817656 L 592.288318 351.170469 L 592.317231 351.471094 L 593.820736 352.870156 L 596.428738 356.107656 L 596.972313 357.211875 L 597.012792 357.957656 L 596.810397 358.651406 L 596.099124 359.368281 L 595.289544 359.472344 L 594.670794 359.160156 L 594.069393 358.217812 L 594 356.437187 L 592.652629 353.228594 L 591.92979 352.349844 L 591.530783 352.280469 L 591.062383 352.500156 L 590.940946 352.899063 L 591.021904 353.9975 L 592.062792 355.980469 L 592.872371 357.899844 L 592.901285 358.587812 L 592.542757 359.391406 L 592.178446 359.657344 L 591.258995 359.87125 L 590.958294 360.258594 L 590.69229 361.692344 L 590.449416 361.912031 L 589.992582 362.021875 L 589.431659 361.599844 L 589.119393 360.327969 L 588.338727 359.437656 L 587.881893 359.310469 L 586.407301 360.541875 L 585.898423 360.24125 L 584.701402 360.090937 L 584.608879 361.241406 L 584.909579 362.912188 L 584.59153 364.21875 L 584.1 365.068594 L 583.851343 365.987813 L 583.550643 366.548594 L 582.908762 366.820312 L 582.278446 366.860781 L 581.862091 367.369531 L 582.128096 368.01125 L 584.007477 370.687969 L 583.741472 372.410781 L 581.370561 375.0875 Z M 580.399065 375.839063 " transform="matrix(0.675505,0,0,0.675676,0,0)"/>
	<path id="place5" title="Namangan" class="land" d="M 749.080724 282.292656 L 748.577629 281.448594 L 748.120794 281.159531 L 747.669743 281.090156 L 747.218692 281.327187 L 746.172021 280.980313 L 745.408703 280.951406 L 743.529322 282.31 L 743.18236 282.390938 L 742.5 282.090312 L 740.759404 280.96875 L 739.62021 280.662344 L 738.400058 280.517812 L 737.237734 281.309844 L 736.7809 281.090156 L 736.219977 281.038125 L 734.600818 280.390625 L 734.282769 279.980156 L 734.300117 279.101406 L 733.739194 279.037812 L 733.3691 278.84125 L 733.299708 278.627344 L 733.941589 276.632812 L 734.86104 275.019844 L 735.641706 274.222031 L 736.110105 273.401094 L 736.671028 272.048281 L 736.618984 271.799688 L 735.537617 271.221563 L 734.687558 270.1925 L 734.409988 269.539219 L 734.537208 268.238437 L 734.398423 267.868437 L 734.022547 267.590937 L 733.611974 267.827969 L 733.270794 268.38875 L 732.461215 268.562187 L 732.212558 268.38875 L 732.148949 268.197969 L 732.409171 266.897187 L 731.790421 265.839219 L 730.391005 264.492188 L 729.338551 262.277969 L 728.968458 262.179688 L 728.829673 262.301094 L 728.719801 263.989219 L 728.552103 264.249375 L 728.239836 264.31875 L 728.031659 263.908281 L 727.92757 263.231875 L 727.621086 262.960156 L 727.239428 262.93125 L 726.609112 263.382187 L 726.487675 263.781094 L 726.898248 264.440156 L 726.840421 265.000938 L 726.568633 265.209063 L 726.152278 264.948906 L 725.741706 264.237813 L 725.637617 263.781094 L 725.73014 263.3475 L 726.568633 262.249062 L 727.03125 261.422344 L 727.100643 260.948281 L 726.857769 259.537656 L 726.990771 259.242813 L 726.927161 258.502813 L 727.360864 257.600937 L 727.008119 256.988125 L 725.868925 256.941875 L 725.510397 257.040156 L 724.741297 257.762812 L 723.977979 259.121406 L 723.538493 259.618594 L 722.277862 260.052188 L 722.040771 260.399063 L 722.092815 260.821094 L 722.410864 261.058125 L 723.550058 261.167969 L 724.122547 261.399219 L 724.61986 262.179688 L 724.752862 262.861875 L 724.411682 264.081719 L 723.972196 264.891094 L 723.931717 265.301562 L 724.729731 266.527188 L 724.440596 267.192031 L 723.781367 267.908906 L 723.422839 268.608437 L 723.151051 269.59125 L 722.931308 269.602812 L 722.57278 269.348437 L 722.312558 269.602812 L 721.988727 270.319687 L 721.387325 270.811094 L 721.219626 271.389219 L 721.051928 271.429688 L 720.797488 272.377813 L 720.421612 272.701563 L 719.82021 272.539688 L 719.207243 271.851719 L 718.808236 271.632031 L 717.929264 271.608906 L 717.507126 271.961563 L 716.842114 272.100312 L 716.02097 271.591563 L 715.697138 271.660937 L 714.257243 273.377969 L 714.210981 273.788437 L 714.459638 274.557344 L 714.199416 275.407188 L 714.199416 275.939062 L 714.37868 276.309062 L 715.240304 276.679062 L 715.541005 277.401719 L 714.650467 279.402031 L 714.332418 281.390781 L 713.621145 282.997969 L 713.592231 283.367969 L 712.557126 284.489531 L 712.0309 284.53 L 711.770678 284.362344 L 711.620327 284.0675 L 711.389019 282.298437 L 711.15771 281.812813 L 710.371262 280.980313 L 709.978037 280.789531 L 709.440245 280.801094 L 708.931367 281.101719 L 708.578621 281.512187 L 708.347313 282.922813 L 707.948306 283.680156 L 707.150292 284.431719 L 706.641414 284.547344 L 706.259755 284.4375 L 706.12097 284.142656 L 706.340713 281.749219 L 706.080491 280.32125 L 705.820269 279.899219 L 704.871904 279.269063 L 704.571203 279.228594 L 703.952453 279.517656 L 703.819451 279.922344 L 703.85993 280.46 L 703.547664 280.69125 L 703.270093 280.627656 L 702.842173 279.569687 L 702.518341 279.558125 L 702.171379 279.85875 L 701.697196 280.581406 L 701.217231 280.558281 L 700.962792 280.708594 L 700.130082 281.587344 L 699.632769 281.882187 L 699.227979 281.911094 L 698.019393 281.4775 L 697.60882 281.1075 L 697.001636 280.09 L 696.197839 279.899219 L 694.971904 279.101406 L 694.382068 279.130313 L 691.722021 280.939844 L 691.161098 280.7375 L 690.617523 279.511875 L 689.698072 278.650469 L 688.842231 278.112813 L 688.258178 277.257187 L 687.731951 276.76 L 687.460164 276.719531 L 686.74889 277.0375 L 686.280491 277.719688 L 685.44778 279.777812 L 685.152862 280.217188 L 684.817465 280.379062 L 683.961624 280.032188 L 683.458528 279.419375 L 683.238785 278.5175 L 683.267699 277.430625 L 684.007886 276.4825 L 684.18715 275.88125 L 684.088843 275.528594 L 683.470093 274.620938 L 683.221437 273.880938 L 683.152044 272.08875 L 683.5684 271.169531 L 683.822839 270.0075 L 683.331308 267.960938 L 680.781133 263.879375 L 680.358995 262.711563 L 680.168166 262.549688 L 678.959579 262.208594 L 678.647313 262.2375 L 677.508119 263.087344 L 676.282185 263.029531 L 674.761332 263.509375 L 673.778271 264.347656 L 673.367699 265.087656 L 671.690713 266.480937 L 669.608937 266.480937 L 669.111624 265.9375 L 668.429264 267.868437 L 665.462734 271.978906 L 666.127745 279.280625 L 668.041822 281.899531 L 668.701051 283.240781 L 668.938143 285.570625 L 668.972839 287.322344 L 668.822488 288.201094 L 669.0191 288.617344 L 669.470152 288.6 L 670.198773 288.998906 L 670.470561 289.681094 L 671.569276 290.571406 L 671.638668 291.19 L 671.9625 291.432813 L 672.841472 292.617969 L 673.518049 292.641094 L 674.067407 294.01125 L 675.079381 295.26 L 675.472605 296.150312 L 676.582886 297.797969 L 677.03972 298.977344 L 677.311507 298.988906 L 677.427161 299.358906 L 678.398657 300.191406 L 678.959579 301.561562 L 679.79229 301.867969 L 680.318516 302.342031 L 681.047138 303.330625 L 680.567173 303.712187 L 680.399474 303.619687 L 680.110339 303.798906 L 680.191297 304.122656 L 680.000467 304.411719 L 679.630374 304.51 L 679.057886 304.261406 L 678.589486 303.047344 L 678.219393 304.290312 L 678.259871 305.001406 L 678.577921 305.637344 L 679.410631 305.400312 L 680.642348 305.498594 L 681.492407 305.949531 L 681.209054 306.12875 L 682.111157 306.169219 L 682.539077 306.400469 L 683.539486 307.250313 L 683.759229 307.741719 L 684.100409 307.649219 L 684.360631 307.389063 L 689.229673 306.140312 L 692.612558 305.5275 L 699.360981 305.429219 L 699.360981 305.648906 L 698.990888 306.169219 L 697.631951 307.828438 L 698.458879 309.799844 L 700.338259 311.649844 L 705.918575 314.378594 L 706.317582 314.459531 L 707.0809 314.0375 L 710.099474 311.187344 L 710.862792 310.187187 L 711.608762 308.741875 L 712.840479 307.949844 L 716.951986 305.718281 L 720.392699 304.689219 L 722.289428 303.480937 L 720.091998 300.81 L 722.121729 298.919531 L 723.31875 298.121719 L 731.911857 295.930625 L 735.578096 295.959531 L 736.16215 296.208125 L 736.890771 296.768906 L 740.221612 297.520469 L 741.678855 297.670781 L 746.559463 297.231406 L 747.091472 296.959687 L 747.490479 296.497187 L 748.75111 290.640781 L 748.328972 290.380625 L 747.877921 289.8025 L 748.039836 289.467188 L 749.300467 289.172344 L 749.832477 288.761875 L 750.300876 287.738594 L 749.849825 286.917656 Z M 678.6184 296.982813 L 675.437909 292.67 L 674.217757 291.768125 L 673.211565 291.739219 L 673.020736 291.062813 L 673.292523 290.58875 L 674.021145 290.027969 L 673.749357 290.409531 L 674.952161 290.918281 L 676.461449 292.687344 L 678.190479 295.040312 L 678.83236 296.618594 Z M 678.6184 296.982813 " transform="matrix(0.675505,0,0,0.675676,0,0)"/>
	<path id="place6" title="Navoiy" class="land" d="M 498.168925 276.129844 L 497.648481 280.887812 L 497.428738 280.847344 L 497.139603 283.778437 L 490.431659 283.998125 L 491.559287 294.641406 L 492.282126 295.9075 L 493.230491 296.491406 L 497.498131 297.537812 L 497.75257 297.769063 L 497.978096 298.300937 L 499.550993 305.1575 L 499.26764 305.8975 L 496.150759 311.222031 L 491.721203 319.807187 L 490.992582 321.599375 L 489.731951 318.130625 L 487.869918 315.47125 L 486.898423 314.349688 L 486.320152 314.077969 L 484.209463 315.997344 L 481.861682 317.292344 L 480.479614 317.402187 L 478.652278 317.147812 L 477.61139 316.361562 L 476.582068 314.812187 L 475.390829 314.719688 L 474.280549 314.910469 L 473.372664 315.991562 L 471.221495 320.668594 L 470.631659 325.582656 L 470.880315 325.929531 L 471.418107 326.131875 L 471.788201 326.84875 L 471.620502 329.120781 L 470.74153 335.237344 L 469.879907 336.578594 L 467.578388 342.648906 L 467.780783 343.631719 L 468.578797 343.73 L 470.007126 342.810781 L 470.828271 342.880156 L 471.007535 343.331094 L 470.86875 344.452656 L 470.440829 345.07125 L 466.948072 348.360781 L 465.317348 349.118125 L 456.411974 351.049062 L 455.191822 350.8525 L 449.808119 348.551562 L 447.720561 347.412656 L 447.257944 346.372031 L 446.257535 344.822656 L 440.781308 342.747187 L 439.769334 342.579531 L 439.24889 342.862813 L 438.901928 343.429375 L 438.740012 344.128906 L 438.792056 345.100156 L 438.369918 350.89875 L 436.542582 356.437187 L 435.831308 357.732188 L 435.310864 358.032812 L 434.721028 358.038594 L 431.870152 357.159844 L 430.869743 356.668437 L 422.218808 359.587969 L 421.721495 359.940625 L 421.640537 360.310625 L 421.970152 361.079531 L 423.450526 362.611562 L 424.422021 363.420937 L 425.35882 364.872031 L 426.711974 370.0925 L 426.538493 371.057969 L 426.029614 372.520625 L 424.861507 374.862031 L 424.821028 375.492188 L 424.988727 376.301562 L 425.798306 378.111094 L 427.920561 381.909375 L 427.521554 382.337187 L 426.989544 382.551094 L 424.387325 382.95 L 422.999474 383.32 L 422.20146 383.701563 L 421.02757 384.510938 L 420.738435 381.128906 L 420.379907 379.978437 L 415.990829 370.589687 L 411.081308 366.90125 L 407.877687 367.681719 L 406.802103 367.618125 L 399.741414 364.947187 L 398.550175 363.8025 L 394.282535 358.009687 L 395.699299 355.2925 L 396.589836 354.957187 L 400.990479 352.292031 L 403.118516 349.817656 L 405.651343 345.042344 L 406.940888 339.330469 L 407.391939 334.971406 L 407.027629 331.647187 L 407.391939 331.028594 L 408.50222 330.54875 L 410.560864 330.670156 L 412.561682 331.970937 L 413.382827 332.757187 L 415.389428 333.751562 L 418.292348 334.289219 L 422.13785 334.520469 L 423.080432 334.138906 L 423.722313 333.531875 L 427.070502 329.3925 L 428.521963 325.258906 L 428.689661 324.229844 L 432.679731 321.420156 L 434.079147 312.158594 L 426.110572 311.019687 L 420.177512 310.389531 L 411.549708 309.198594 L 410.520386 308.8575 L 409.722371 308.44125 L 408.577395 307.342812 L 406.437792 297.219844 L 405.651343 294.392812 L 404.679848 294.167344 L 404.228797 294.358125 L 403.511741 296.4625 L 402.378329 299.139219 L 400.111507 299.520781 L 396.318049 299.578594 L 391.298657 300.1625 L 390.731951 300.3475 L 389.910806 304.839531 L 389.719977 305.330938 L 373.528388 303.440469 L 373.430082 295.832344 L 371.758879 293.901406 L 370.879907 293.751094 L 368.688259 294.918906 L 367.647371 296.011562 L 362.269451 308.198438 L 361.720093 308.389219 L 359.077395 308.620469 L 355.677161 308.707187 L 356.157126 306.481406 L 355.821729 304.989844 L 355.260806 303.937656 L 353.138551 302.272656 L 343.307944 296.572344 L 334.830491 291.970469 L 329.45257 289.657969 L 326.289428 288.750313 L 324.248131 288.802344 L 323.802862 289.172344 L 322.918107 289.259062 L 322.351402 287.871562 L 320.951986 282.720469 L 318.87021 278.367188 L 317.297313 276.788906 L 313.758294 274.892656 L 311.370035 273.3375 L 309.218867 271.019219 L 307.831016 268.961094 L 304.48861 262.260625 L 303.441939 262.341563 L 289.887266 265.550156 L 286.221028 266.469375 L 285.660105 266.752656 L 264.738259 238.077656 L 277.587442 230.978281 L 270.850584 218.831875 L 272.111215 203.060625 L 299.769918 150.850156 L 284.330082 146.670312 L 278.477979 136.177344 L 320.842114 127.9275 L 341.289778 124.32 L 344.77097 125.002188 L 347.777979 125.360625 L 357.481367 126.412813 L 363.408645 126.788594 L 365.80847 127.210625 L 379.987675 128.2975 L 393.629089 128.968125 L 393.831484 128.817813 L 394.681542 128.777344 L 405.200292 123.608906 L 412.197371 120.550625 L 416.580666 118.359531 L 418.639311 117.850781 L 419.720678 117.740938 L 421.391881 117.810312 L 422.218808 118.128281 L 422.982126 118.712187 L 423.97097 119.851094 L 429.701636 132.471563 L 431.719801 134.379375 L 435.32243 138.119844 L 446.199708 147.797656 L 447.69743 153.867969 L 454.341764 175.258594 L 466.907593 169.338594 L 467.260339 200.638281 L 467.208294 207.8475 L 466.630023 207.668281 L 464.21285 206.442656 L 463.958411 206.442656 L 463.860105 213.039062 L 462.95222 214.1375 L 462.651519 230.781719 L 462.720911 232.932344 L 486.857944 235.851875 L 490.339136 275.551719 Z M 498.168925 276.129844 " transform="matrix(0.675505,0,0,0.675676,0,0)"/>
	<path id="place7" title="Qashqadaryo" class="land" d="M 421.02757 384.510938 L 422.20146 383.701563 L 422.999474 383.32 L 424.387325 382.95 L 426.989544 382.551094 L 427.521554 382.337187 L 427.920561 381.909375 L 428.608703 382.07125 L 446.159229 382.597344 L 447.651168 382.418125 L 448.958061 381.868906 L 450.392173 380.799375 L 450.57722 380.527656 L 450.617699 380.198125 L 454.9316 381.082656 L 458.227745 384.8925 L 460.997664 389.540625 L 461.090187 391.032188 L 461.30993 391.240313 L 462.032769 391.488906 L 465.109171 392.269375 L 466.641589 392.228906 L 468.850584 390.847188 L 472.117815 389.182187 L 479.670035 387.309062 L 480.30035 387.470937 L 481.468458 388.2225 L 483.122313 389.662031 L 484.75882 390.8125 L 485.452745 391.142031 L 485.747664 391.130469 L 489.390771 389.569531 L 490.211916 388.609844 L 491.310631 386.829219 L 492.137558 385.881094 L 492.947138 385.597812 L 494.138376 385.54 L 502.708353 387.072031 L 503.338668 387.742656 L 503.830199 389.060781 L 503.720327 390.321094 L 503.25771 392.020781 L 503.32132 392.598906 L 503.650935 393.07875 L 504.581951 393.610625 L 506.467114 393.760938 L 510.347313 393.518125 L 511.168458 393.31 L 511.590596 392.830156 L 511.700467 392.4775 L 511.631075 390.702656 L 512.058995 390.222812 L 512.937967 390.170781 L 517.40222 391.442656 L 519.958178 392.529531 L 523.797897 393.720469 L 525.451752 394.038437 L 526.452161 393.807187 L 526.828037 395.39125 L 528.221671 397.802031 L 528.950292 398.547813 L 529.910222 399.079687 L 531.668166 399.449687 L 532.292699 399.860156 L 533.142757 400.149219 L 533.940771 400.172344 L 534.970093 399.952656 L 536.05146 400.137656 L 537.069217 400.611719 L 537.722664 402.2825 L 538.289369 402.507969 L 539.879614 402.588906 L 540.157185 402.877969 L 540.151402 403.450312 L 539.798657 403.959063 L 539.590479 406.462344 L 540.029965 407.722656 L 540.157185 409.769219 L 540.550409 410.33 L 539.752395 411.150937 L 538.769334 411.729062 L 534.779264 411.960312 L 533.91764 412.220469 L 533.408762 412.469063 L 532.737967 413.041406 L 532.292699 413.879687 L 532.229089 414.278594 L 532.772664 417.417812 L 533.790421 419.522187 L 534.172079 419.978906 L 534.32243 420.499219 L 534.44965 424.702187 L 533.108061 428.997656 L 532.570269 428.818438 L 531.159287 427.390469 L 530.158879 427.0725 L 528.730549 426.997344 L 527.591355 427.332656 L 527.140304 427.667969 L 526.550467 428.309687 L 525.740888 429.610469 L 524.54965 431.830469 L 515.661624 440.710469 L 514.938785 444.057813 L 514.782652 445.578281 L 514.412558 446.977344 L 513.961507 447.850312 L 511.538551 450.278437 L 509.711215 451.561875 L 506.172196 453.411875 L 494.589428 465.512031 L 494.161507 466.760781 L 493.120619 471.027344 L 493.392407 471.929219 L 490.998364 469.142656 L 489.951694 468.472031 L 488.47132 467.859219 L 485.279264 467.512344 L 482.648131 468.3275 L 482.081425 468.391094 L 480.820794 468.061562 L 479.589077 466.992031 L 476.801811 465.350156 L 474.968692 463.280469 L 473.679147 460.950625 L 473.210748 460.65 L 471.308236 460.540156 L 467.809696 459.511094 L 467.179381 459.112188 L 466.682068 458.140938 L 465.508178 457.742031 L 464.640771 457.609062 L 463.877453 456.81125 L 463.409054 456.637812 L 462.038551 456.707187 L 461.211624 456.44125 L 460.309521 455.84 L 458.401227 453.880156 L 457.499124 453.637344 L 456.429322 453.648906 L 455.457827 453.920625 L 454.729206 455.319687 L 454.168283 455.250313 L 454.029498 455.348594 L 453.867582 455.990313 L 453.497488 456.157969 L 452.971262 456.157969 L 448.287266 455.198281 L 438.358353 451.278594 L 436.409579 450.162812 L 430.002336 446.029219 L 428.151869 444.537656 L 425.451343 442.022812 L 417.841297 434.420469 L 417.257243 434.027344 L 414.527804 432.778594 L 411.029264 431.448906 L 408.091647 430.07875 L 406.362617 428.818438 L 405.74965 428.159375 L 396.7691 422.609375 L 394.051227 420.707344 L 388.51139 415.579375 L 387.320152 414.272812 L 392.929381 408.040625 L 411.052395 401.397969 L 411.329965 400.790937 L 411.098657 400.282188 L 410.277512 399.108594 L 409.450584 398.229844 L 408.739311 397.027344 L 408.58896 396.171719 L 408.941706 395.142656 L 413.342348 390.430937 L 413.909054 390.321094 L 417.257243 388.101094 Z M 421.02757 384.510938 " transform="matrix(0.675505,0,0,0.675676,0,0)"/>
	<path id="place8" title="Qoraqalpog‘iston Respublikasi" class="land" d="M 157.197196 24.8825 L 157.549942 32.600469 L 155.537558 38.439531 L 152.322371 43.879688 L 149.500409 49.921094 L 148.488435 54.147188 L 146.279439 54.147188 L 144.469451 54.349531 L 143.05847 55.760156 L 142.46285 58.379062 L 143.27243 63.009844 L 144.481016 65.62875 L 145.290596 68.45 L 142.86764 69.259375 L 139.849065 67.652187 L 137.431893 69.062812 L 135.621904 73.092344 L 133.198949 77.318438 L 130.989953 79.740781 L 127.971379 77.93125 L 127.572371 73.901719 L 127.369977 67.657969 L 126.16139 66.050781 L 126.16139 62.599375 L 127.768984 62.599375 L 128.97757 65.420625 L 130.787558 66.432344 L 133.609521 65.420625 L 135.020502 62.402812 L 135.020502 58.3675 L 136.032477 55.147344 L 133.002336 53.337812 L 129.781367 50.718906 L 129.179965 48.302344 L 130.989953 46.290469 L 132.799942 45.891562 L 134.812325 46.8975 L 135.008937 38.647656 L 137.8309 38.24875 L 137.628505 35.028594 L 135.211332 34.427344 L 131.38896 33.831875 L 129.977979 34.837812 L 128.370386 36.849688 L 126.16139 37.861406 L 127.572371 35.647188 L 130.388551 30.420938 L 132.19854 27.802031 L 131.192348 24.778437 L 129.179965 21.957187 L 129.781367 18.141562 L 130.787558 14.719062 L 134.187792 8.290313 Z M 118.880958 1.48 L 118.701694 5.029687 L 117.088318 8.249844 L 116.891706 13.077187 L 113.069334 16.499688 L 111.062734 19.719844 L 110.860339 25.558906 L 108.240771 28.177812 L 107.032185 33.820312 L 104.007827 38.647656 L 102.001227 44.082031 L 101.60222 48.712812 L 101.798832 54.748438 L 103.007418 57.569688 L 105.019801 61.18875 L 104.620794 63.807656 L 101.60222 72.259844 L 102.001227 77.491875 L 104.210222 82.718125 L 106.419217 85.342812 L 109.437792 86.747656 L 113.468341 88.360625 L 116.492699 88.557187 L 119.112266 90.569063 L 121.118867 91.170312 L 122.130841 89.158438 L 123.738435 88.759531 L 126.16139 88.961875 L 127.971379 88.1525 L 133.002336 86.539531 L 135.621904 85.33125 L 137.229498 86.337187 L 138.039077 89.962031 L 136.229089 92.170469 L 133.401343 93.997344 L 134.407535 97.622187 L 136.622313 98.628125 L 138.432301 100.437656 L 143.659871 101.252813 L 146.279439 103.46125 L 149.298014 103.860156 L 155.340946 104.461406 L 159.770502 104.657969 L 163.390479 102.449531 L 165.807652 103.860156 L 167.022021 104.871875 L 170.83861 104.0625 L 172.850993 103.46125 L 176.47097 104.669531 L 181.501928 103.657813 L 186.330491 102.050625 L 193.379614 99.229375 L 193.981016 96.610469 L 197.398598 96.610469 L 198.607185 94.800938 L 197.612558 92.997187 L 199.220152 89.580469 L 205.459696 84.550781 L 210.091647 79.92 L 212.907827 74.890312 L 213.717407 71.068906 L 212.711215 69.658281 L 211.097839 68.247656 L 210.091647 66.241563 L 213.971846 65.888906 L 235.651227 81.53875 L 237.860222 88.591875 L 243.932068 94.72 L 250.321963 102.432187 L 250.611098 103.068125 L 251.247196 103.657813 L 253.780023 106.669844 L 259.481776 113.6825 L 276.309463 134.581719 L 277.940187 136.142656 L 278.489544 136.188906 L 284.341647 146.687656 L 299.769918 150.8675 L 272.111215 203.072187 L 270.850584 218.837656 L 277.587442 230.989844 L 264.738259 238.089219 L 285.660105 266.758438 L 299.451869 285.940625 L 288.510981 290.999219 L 285.960806 292.2075 L 285.30736 292.0225 L 285.041355 291.802813 L 280.478797 284.39125 L 278.981075 281.622031 L 270.977804 272.811406 L 267.901402 270.897812 L 264.379731 269.042031 L 255.428096 266.978125 L 252.392173 266.960781 L 251.76764 267.157344 L 250.37979 267.932031 L 249.599124 268.822344 L 248.431016 271.1175 L 247.922138 272.990625 L 247.199299 273.759531 L 245.70736 273.759531 L 243.457886 272.32 L 243.209229 271.157969 L 242.839136 270.290781 L 240.82097 268.01875 L 240.109696 267.411719 L 239.369509 267.122656 L 237.212558 266.758438 L 235.801577 266.180313 L 229.839603 261.642031 L 221.610806 254.32875 L 220.037909 252.831406 L 216.68972 248.929062 L 211.519977 244.101719 L 210.831834 243.789531 L 210.16104 243.142031 L 209.790946 242.679531 L 206.708762 237.291406 L 206.298189 234.828594 L 206.25771 232.198125 L 206.090012 231.62 L 205.70257 231.140156 L 200.417173 230.018594 L 196.161098 231.411875 L 194.258586 232.250156 L 191.592757 237.482188 L 191.367231 236.950312 L 190.869918 236.349063 L 190.320561 235.961719 L 187.897605 235.129219 L 187.088026 234.620469 L 185.312734 232.429375 L 185.139252 232.469844 L 184.809638 232.117188 L 183.930666 232.319531 L 182.670035 231.082344 L 182.479206 230.267188 L 182.670035 229.931875 L 183.230958 229.480938 L 186.047138 229.278594 L 186.399883 228.827656 L 186.197488 228.029844 L 185.68861 227.301406 L 185.278037 226.330156 L 185.058294 225.387812 L 184.902161 223.121563 L 183.64153 221.479688 L 183.612617 220.809063 L 183.791881 220.329219 L 184.87903 219.751094 L 185.301168 219.941875 L 186.151227 220.040156 L 186.608061 219.930312 L 187.059112 219.5025 L 187.307769 219.109375 L 187.3309 218.467656 L 186.839369 217.2825 L 186.359404 216.721719 L 185.370561 216.120469 L 183.6184 215.877656 L 183.040129 215.640625 L 182.218984 214.929531 L 181.392056 213.807969 L 180.709696 212.449375 L 180.079381 211.888594 L 178.107477 211.252656 L 177.072371 210.408594 L 176.760105 210.957812 L 176.297488 212.391562 L 175.93896 212.738438 L 175.441647 212.75 L 173.637442 212.200781 L 172.960864 211.848125 L 172.498248 211.87125 L 171.960456 211.657344 L 169.988551 211.622656 L 168.421437 211.992656 L 166.91215 211.992656 L 165.570561 212.14875 L 158.157126 212.252813 L 157.590421 211.801875 L 156.861799 210.402813 L 156.208353 210.102187 L 155.329381 209.038437 L 151.287266 205.008906 L 151.25257 204.61 L 151.709404 203.372813 L 151.599533 202.141406 L 148.187734 197.689844 L 147.719334 197.227344 L 146.609054 196.568281 L 146.210047 196.510469 L 145.117114 196.811094 L 144.157185 197.58 L 143.590479 197.822812 L 140.988259 197.649375 L 140.288551 197.429688 L 138.709871 196.568281 L 136.437266 195.909219 L 135.772255 195.59125 L 134.037442 194.088125 L 129.850759 189.492031 L 125.039544 184.138594 L 121.95736 180.242031 L 121.477395 179.808437 L 121.448481 180.658281 L 121.141998 181.837656 L 121.240304 182.392656 L 122.130841 183.277187 L 122.17132 183.572031 L 121.997839 184.092344 L 121.662442 184.312031 L 121.240304 184.300469 L 120.690946 183.988281 L 120.060631 183.988281 L 119.551752 184.618437 L 119.551752 184.791875 L 120.239895 185.358438 L 120.500117 185.780469 L 120.077979 187.96 L 119.771495 188.451406 L 119.279965 188.752031 L 118.129206 188.382031 L 115.480724 188.879219 L 114.410923 188.942813 L 113.092465 188.301094 L 111.878096 188.058281 L 110.69264 187.491719 L 109.200701 187.08125 L 106.29778 186.48 L 105.40146 186.508906 L 103.978914 187.08125 L 102.938026 187.6825 L 100.607593 189.619219 L 99.988843 189.682813 L 99.578271 190.029687 L 99.399007 190.717656 L 99.722839 191.480781 L 101.579089 192.827812 L 103.95 194.1575 L 104.938843 194.539062 L 106.291998 194.787656 L 106.737266 195.331094 L 109.408879 201.528594 L 110.709988 203.580938 L 111.282477 204.257344 L 111.467523 205.199688 L 111.432827 206.407969 L 111.872313 206.812656 L 112.39854 206.679688 L 115.550117 208.662656 L 116.510047 209.448906 L 116.637266 210.16 L 116.128388 211.200625 L 115.758294 211.460781 L 115.330374 211.478125 L 113.219685 210.980938 L 111.351869 211.3625 L 111.16104 210.691875 L 111.282477 208.668438 L 111.172605 207.622031 L 110.357243 204.760312 L 109.651752 203.419062 L 108.761215 202.430469 L 107.51215 201.592187 L 102.660456 200.337656 L 101.862442 200.389688 L 99.68236 201.522812 L 98.38125 202.002656 L 98.190421 201.898594 L 97.999591 201.181719 L 97.08014 200.528437 L 96.791005 200.158437 L 96.519217 198.961719 L 95.669159 198.210156 L 94.709229 198.030937 L 93.2809 198.337344 L 92.292056 199.019531 L 91.760047 199.007969 L 91.488259 199.302812 L 91.089252 201.129687 L 90.800117 201.88125 L 90.482068 201.748281 L 89.741881 200.892656 L 89.302395 200.782813 L 88.6316 201.0025 L 88.411857 201.389844 L 88.128505 202.939219 L 88.469685 203.719687 L 89.360222 204.540625 L 89.799708 205.2575 L 90.129322 206.338594 L 90.111974 206.882031 L 89.741881 207.928438 L 89.770794 209.339063 L 89.527921 210.449062 L 89.649357 211.998437 L 89.452745 213.611406 L 89.267699 214.212656 L 88.932301 214.6 L 88.458119 214.761875 L 87.608061 214.727187 L 85.948423 214.039219 L 85.508937 214.1375 L 85.231367 214.657813 L 84.890187 215.860312 L 85.589895 217.062813 L 86.029381 218.16125 L 85.838551 218.5775 L 84.971145 218.698906 L 81.912091 218.178594 L 79.321437 219.068906 L 77.551928 219.999687 L 76.811741 220.178906 L 76.210339 220.161563 L 74.59118 219.167188 L 72.717582 218.797188 L 70.427629 218.617969 L 65.257886 218.90125 L 63.297547 219.629687 L 60.782068 220.872656 L 58.590421 222.468281 L 57.32979 223.560937 L 56.207944 225.168125 L 55.797371 226.041094 L 55.120794 227.630937 L 54.050993 230.960938 L 53.438026 231.810781 L 52.310397 232.909219 L 51.599124 233.342813 L 50.228621 233.851562 L 48.071671 234.4875 L 47.337266 234.932656 L 46.481425 235.718906 L 45.561974 237.638281 L 45.249708 239.679062 L 44.798657 241.511719 L 44.850701 244.257812 L 45.151402 246.940313 L 45.012617 249.669062 L 45.567757 252.039375 L 45.972547 253.027969 L 46.348423 253.530937 L 46.331075 253.767969 L 46.689603 253.929844 L 47.221612 254.958906 L 47.458703 256.109375 L 47.551227 256.907188 L 47.348832 258.132812 L 47.348832 260.468437 L 47.77097 263.607656 L 48.071671 264.602031 L 48.447547 265.318906 L 50.298014 267.960938 L 51.211682 267.978281 L 53.160456 267.382812 L 53.588376 267.781719 L 53.628855 268.302031 L 53.310806 269.007344 L 52.911799 269.412031 L 52.37979 269.741562 L 50.402103 270.429531 L 49.557827 271.221563 L 49.100993 272.100312 L 49.060514 273.597656 L 48.742465 274.268281 L 48.250935 274.811719 L 47.701577 275.100781 L 46.377336 275.100781 L 44.578914 274.661406 L 40.617757 274.320312 L 36.471554 273.730625 L 29.717348 273.308594 L 25.952804 273.227656 L 20.071787 272.55125 L 16.57903 272.291094 L 14.69965 272.302656 L 9.518341 271.828594 L 0.0983061 271.44125 L 0.0173481 38.878906 L 1.538201 38.491563 L 2.972313 37.861406 L 33.111799 28.010156 L 33.129147 27.877187 L 34.80035 27.588125 L 35.14153 27.24125 L 36.147722 26.900156 L 49.291822 22.697187 L 92.951285 9.197969 L 99.601402 6.977969 L 101.821963 6.52125 Z M 118.880958 1.48 " transform="matrix(0.675505,0,0,0.675676,0,0)"/>
	<path id="place9" title="Samarqand" class="land" d="M 532.691706 391.980312 L 532.581834 392.280937 L 530.980023 391.96875 L 530.008528 392.182656 L 526.677687 393.327344 L 526.452161 393.622187 L 526.452161 393.807187 L 525.451752 394.038437 L 523.797897 393.720469 L 519.958178 392.529531 L 517.40222 391.442656 L 512.937967 390.170781 L 512.058995 390.222812 L 511.631075 390.702656 L 511.700467 392.4775 L 511.590596 392.830156 L 511.168458 393.31 L 510.347313 393.518125 L 506.467114 393.760938 L 504.581951 393.610625 L 503.650935 393.07875 L 503.32132 392.598906 L 503.25771 392.020781 L 503.720327 390.321094 L 503.830199 389.060781 L 503.338668 387.742656 L 502.708353 387.072031 L 494.138376 385.54 L 492.947138 385.597812 L 492.137558 385.881094 L 491.310631 386.829219 L 490.211916 388.609844 L 489.390771 389.569531 L 485.747664 391.130469 L 485.452745 391.142031 L 484.75882 390.8125 L 483.122313 389.662031 L 481.468458 388.2225 L 480.30035 387.470937 L 479.670035 387.309062 L 472.117815 389.182187 L 468.850584 390.847188 L 466.641589 392.228906 L 465.109171 392.269375 L 462.032769 391.488906 L 461.30993 391.240313 L 461.090187 391.032188 L 460.997664 389.540625 L 458.227745 384.8925 L 454.9316 381.082656 L 450.617699 380.198125 L 450.57722 380.527656 L 450.392173 380.799375 L 448.958061 381.868906 L 447.651168 382.418125 L 446.159229 382.597344 L 428.608703 382.07125 L 427.920561 381.909375 L 425.798306 378.111094 L 424.988727 376.301562 L 424.821028 375.492188 L 424.861507 374.862031 L 426.029614 372.520625 L 426.538493 371.057969 L 426.711974 370.0925 L 425.35882 364.872031 L 424.422021 363.420937 L 423.450526 362.611562 L 421.970152 361.079531 L 421.640537 360.310625 L 421.721495 359.940625 L 422.218808 359.587969 L 430.869743 356.668437 L 431.870152 357.159844 L 434.721028 358.038594 L 435.310864 358.032812 L 435.831308 357.732188 L 436.542582 356.437187 L 438.369918 350.89875 L 438.792056 345.100156 L 438.740012 344.128906 L 438.901928 343.429375 L 439.24889 342.862813 L 439.769334 342.579531 L 440.781308 342.747187 L 446.257535 344.822656 L 447.257944 346.372031 L 447.720561 347.412656 L 449.808119 348.551562 L 455.191822 350.8525 L 456.411974 351.049062 L 465.317348 349.118125 L 466.948072 348.360781 L 470.440829 345.07125 L 470.86875 344.452656 L 471.007535 343.331094 L 470.828271 342.880156 L 470.007126 342.810781 L 468.578797 343.73 L 467.780783 343.631719 L 467.578388 342.648906 L 469.879907 336.578594 L 470.74153 335.237344 L 471.620502 329.120781 L 471.788201 326.84875 L 471.418107 326.131875 L 470.880315 325.929531 L 470.631659 325.582656 L 471.221495 320.668594 L 473.372664 315.991562 L 474.280549 314.910469 L 475.390829 314.719688 L 476.582068 314.812187 L 477.61139 316.361562 L 478.652278 317.147812 L 480.479614 317.402187 L 481.861682 317.292344 L 484.209463 315.997344 L 486.320152 314.077969 L 486.898423 314.349688 L 487.869918 315.47125 L 489.731951 318.130625 L 490.992582 321.599375 L 498.781893 322.518594 L 503.390713 322.622656 L 504.350643 324.802188 L 504.362208 325.900625 L 503.529498 327.7275 L 503.390713 328.502187 L 503.489019 332.427656 L 504.327512 336.532344 L 506.189544 338.191562 L 507.629439 341.00125 L 507.560047 341.810625 L 507.108995 343.151875 L 506.871904 343.307969 L 505.628621 343.602812 L 505.530315 343.949687 L 505.877278 347.66125 L 511.712033 351.5925 L 513.828505 352.390312 L 518.63972 352.789219 L 530.511624 355.321406 L 530.719801 355.558437 L 531.789603 361.518906 L 531.870561 362.542188 L 530.569451 362.6925 L 529.03125 363.068281 L 526.868516 364.097344 L 526.180374 364.640781 L 525.422839 365.548437 L 522.201869 370.792031 L 522.09778 371.162031 L 522.120911 375.31875 L 522.329089 376.272656 L 522.982535 377.232344 L 524.011857 378.27875 L 528.53972 382.100156 L 530.771846 386.771406 L 531.598773 389.072344 L 532.541355 391.020625 L 532.749533 391.83 Z M 532.691706 391.980312 " transform="matrix(0.675505,0,0,0.675676,0,0)"/>
	<path id="place10" title="Sirdaryo" class="land" d="M 595.902512 338.937344 L 594.289136 339.908594 L 592.999591 340.238125 L 590.611332 339.5675 L 589.628271 340.012656 L 584.192523 341.752813 L 585.198715 335.341406 L 584.892231 334.659219 L 577.76215 336.301094 L 575.477979 337.087344 L 571.458995 337.908281 L 566.890654 338.081719 L 560.338843 337.769531 L 560.020794 337.7175 L 559.361565 336.752031 L 559.020386 335.850156 L 558.870035 334.890469 L 559.07243 333.37 L 564.02243 322.327812 L 564.79153 320.3275 L 564.941881 319.558594 L 564.779965 319.362031 L 564.45035 319.460312 L 562.339661 320.477812 L 562.177745 320.211875 L 562.65771 315.320938 L 564.762617 314.7775 L 566.618867 314.881562 L 566.960047 314.26875 L 567.127745 311.430156 L 570.782418 314.540469 L 572.667582 314.0375 L 574.581659 315.61 L 574.038084 316.748906 L 578.907126 318.182656 L 579.722488 317.061094 L 582.122313 317.240313 L 586.430432 315.511719 L 585.591939 313.418906 L 583.180549 312.129687 L 582.047138 308.840156 L 578.768341 304.307656 L 579.64153 296.861406 L 578.641121 294.329219 L 579.502745 293.427344 L 578.617991 292.039844 L 574.998014 291.808594 L 574.992231 290.507812 L 579.907535 290.82 L 580.231367 291.42125 L 582.590713 289.952812 L 582.567582 290.189844 L 582.879848 290.282344 L 583.082243 291.479062 L 583.747255 291.727656 L 584.551051 291.357656 L 585.48785 291.571562 L 585.857944 291.947344 L 585.719159 292.282656 L 584.279264 292.831875 L 584.088435 293.17875 L 584.059521 293.739531 L 584.597313 294.7975 L 585.002103 294.467969 L 589.859579 299.989062 L 593.329206 303.457812 L 598.250292 307.897812 L 602.957418 311.811719 L 603.581951 311.892656 L 606.612091 316.11875 L 606.108995 320.818906 L 605.247371 326.137656 L 604.24118 331.097969 L 604.258528 332.161719 L 604.397313 332.780312 L 604.900409 333.8325 L 604.651752 338.561562 L 603.541472 338.208906 L 600.968166 338.191562 L 597.608411 338.538437 Z M 595.902512 338.937344 " transform="matrix(0.675505,0,0,0.675676,0,0)"/>
	<path id="place11" title="Surxondaryo" class="land" d="M 573.037675 460.609531 L 572.008353 464.141875 L 571.869568 465.3675 L 569.568049 467.789844 L 567.931542 470.888594 L 568.000935 472.461094 L 567.532535 473.571094 L 567.619276 474.357344 L 567.272313 475.247656 L 564.7684 476.42125 L 560.720502 477.120781 L 559.910923 478.560313 L 556.74778 485.312813 L 555.602804 486.972031 L 554.232301 487.949062 L 551.942348 490.920625 L 550.889895 493.34875 L 549.617699 495.782656 L 548.027453 497.308906 L 546.841998 501.188125 L 546.789953 503.749219 L 547.050175 507.761406 L 546.489252 514.421406 L 545.777979 516.849531 L 545.101402 517.288906 L 544.511565 516.178906 L 543.008061 514.982188 L 542.267874 514.7625 L 540.891589 514.912812 L 540.469451 514.849219 L 539.607827 514.091875 L 538.607418 513.502187 L 538.000234 513.588906 L 536.629731 514.138125 L 535.958937 514.681563 L 535.571495 515.17875 L 534.871787 515.27125 L 534.44965 514.617969 L 534.027512 513.247813 L 533.287325 512.530938 L 532.471963 512.132031 L 531.801168 512.270781 L 531.22868 512.652344 L 529.360864 514.369375 L 528.00771 514.831875 L 526.862734 515.508281 L 525.602103 515.618125 L 523.757418 516.092188 L 522.797488 517.12125 L 521.299766 517.751406 L 520.761974 517.549062 L 519.90035 516.780156 L 519.732652 515.248125 L 519.449299 514.7625 L 518.680199 514.3925 L 518.310105 513.519531 L 518.038318 513.247813 L 517.072605 512.872031 L 516.621554 512.530938 L 515.921846 512.68125 L 515.459229 512.559844 L 513.938376 511.71 L 513.481542 510.998906 L 513.84007 509.472656 L 513.522021 508.628594 L 511.787208 507.767187 L 510.428271 506.362344 L 510.00035 506.102188 L 508.068925 505.379531 L 506.189544 505.5125 L 502.610047 507.102344 L 501.031367 506.911563 L 500.210222 506.980937 L 497.978096 507.738281 L 496.029322 507.252656 L 495.080958 507.258438 L 493.982243 507.628438 L 492.380432 507.258438 L 490.928972 507.489688 L 489.760864 507.368281 L 487.968224 507.437656 L 486.661332 507.981094 L 486.262325 505.969219 L 486.430023 505.310156 L 486.857944 504.691562 L 487.719568 504.061406 L 488.847196 503.4775 L 491.888902 502.569844 L 492.189603 501.841406 L 492.201168 501.089844 L 491.767465 499.991406 L 487.210689 494.447187 L 486.950467 492.961406 L 487.51139 487.342031 L 487.222255 485.81 L 487.222255 485.20875 L 487.667523 482.098437 L 488.40771 480.312031 L 489.142114 479.190469 L 489.911215 478.427344 L 490.449007 477.16125 L 491.00993 476.432813 L 493.288318 475.097344 L 493.722021 474.698438 L 493.959112 473.871719 L 493.930199 472.981406 L 493.392407 471.929219 L 493.120619 471.027344 L 494.161507 466.760781 L 494.589428 465.512031 L 506.172196 453.411875 L 509.711215 451.561875 L 511.538551 450.278437 L 513.961507 447.850312 L 514.412558 446.977344 L 514.782652 445.578281 L 514.938785 444.057813 L 515.661624 440.710469 L 524.54965 431.830469 L 525.740888 429.610469 L 526.550467 428.309687 L 527.140304 427.667969 L 527.591355 427.332656 L 528.730549 426.997344 L 530.158879 427.0725 L 531.159287 427.390469 L 532.570269 428.818438 L 533.108061 428.997656 L 534.44965 424.702187 L 534.32243 420.499219 L 534.172079 419.978906 L 533.790421 419.522187 L 532.772664 417.417812 L 532.229089 414.278594 L 532.292699 413.879687 L 532.737967 413.041406 L 533.408762 412.469063 L 533.91764 412.220469 L 534.779264 411.960312 L 538.769334 411.729062 L 539.752395 411.150937 L 540.550409 410.33 L 540.93785 410.861875 L 541.62021 411.150937 L 542.528096 410.827187 L 543.152629 411.07 L 544.187734 410.347344 L 546.240596 410.162344 L 547.587967 410.9775 L 549.062558 411.122031 L 550.109229 409.769219 L 552.162091 409.699844 L 553.197196 409.150625 L 553.648248 409.162188 L 554.758528 410.318438 L 555.782068 410.572812 L 557.62097 409.578438 L 558.870035 409.717188 L 560.107535 410.538125 L 560.980724 412.382344 L 561.287208 413.411406 L 563.981951 415.51 L 564.068692 416.307813 L 563.929907 417.550781 L 563.577161 417.770469 L 563.877862 419.932656 L 562.617231 420.580156 L 562.027395 421.482031 L 560.998072 421.8 L 558.499942 422.198906 L 558.147196 422.759687 L 560.680023 426.442344 L 560.321495 427.107188 L 558.73125 427.297969 L 557.459054 428.517812 L 557.881192 429.997813 L 558.748598 431.940313 L 558.742815 432.39125 L 558.268633 432.952031 L 557.939019 438.259219 L 560.361974 441.467812 L 561.362383 442.277187 L 560.99229 443.39875 L 560.061273 444.849844 L 559.812617 445.861562 L 560.257886 445.867344 L 561.738259 445.219844 L 562.200876 445.231406 L 563.872079 446.167969 L 565.277278 448.567187 L 565.491238 449.359219 L 565.572196 450.717812 L 565.791939 450.949062 L 567.127745 451.428906 L 568.579206 452.14 L 569.579614 452.827969 L 571.551519 455.360156 L 571.568867 455.741719 L 572.291706 457.059844 L 573.378855 458.551406 L 573.36729 459.337656 Z M 573.037675 460.609531 " transform="matrix(0.675505,0,0,0.675676,0,0)"/>
	<path id="place12" title="Toshkent City" class="land" d="M 618.709521 267.631406 L 618.761565 267.059062 L 618.669042 266.920313 L 618.431951 266.920313 L 618.13125 267.168906 L 617.998248 267.538906 L 617.252278 267.770156 L 616.541005 268.521719 L 615.841297 268.452344 L 615.482769 269.111406 L 614.927629 268.839688 L 614.360923 268.949531 L 612.759112 268.11125 L 612.5625 268.128594 L 612.302278 268.469688 L 611.481133 268.839688 L 610.451811 268.631562 L 610.341939 268.452344 L 610.197371 268.452344 L 609.00035 269.770469 L 608.902044 270.620313 L 608.450993 271.869062 L 608.312208 272.742031 L 608.190771 274.198906 L 608.277512 274.54 L 609.208528 274.759687 L 609.497664 274.967812 L 609.827278 274.788594 L 610.307243 275.037188 L 610.631075 275.88125 L 610.787208 275.9275 L 611.151519 275.702031 L 611.319217 275.950625 L 612.00736 276.077812 L 612.579848 276.02 L 612.591414 275.540156 L 613.67278 274.667188 L 614.75993 274.759687 L 615.482769 274.990937 L 615.320853 275.401406 L 615.748773 276.337969 L 616.118867 276.592344 L 616.749182 276.499844 L 617.801636 275.447656 L 618.177512 274.580469 L 618.108119 273.401094 L 617.732243 272.672656 L 617.437325 272.400937 L 617.91729 271.637812 L 618.25847 271.389219 L 618.13125 271.048125 L 618.177512 270.568281 L 618.47243 269.891875 L 618.62278 269.770469 L 619.021787 269.8225 L 618.929264 269.157656 L 619.212617 268.891719 L 619.328271 268.411875 L 619.2184 268.088125 L 618.981308 267.949375 Z M 618.709521 267.631406 " transform="matrix(0.675505,0,0,0.675676,0,0)"/>
	<path id="place13" title="Toshkent" class="land" d="M 705.508002 217.270938 L 705.357652 216.889375 L 704.709988 216.380625 L 703.917757 215.999063 L 700.592699 212.998594 L 699.650117 212.460938 L 697.897956 212.252813 L 696.677804 211.5475 L 696.22097 211.530156 L 695.359346 211.738281 L 694.220152 212.24125 L 692.971086 213.3975 L 692.288727 213.432187 L 691.351928 213.091094 L 690.92979 213.131563 L 689.16028 215.368906 L 688.142523 216.062656 L 687.182593 216.490469 L 685.997138 217.380781 L 685.29743 217.398125 L 684.239194 216.392188 L 683.71875 216.548281 L 683.140479 217.109062 L 682.469685 217.8375 L 681.631192 219.219219 L 680.810047 219.878281 L 680.260689 220.780156 L 679.277629 221.560625 L 678.531659 222.6475 L 678.381308 223.907813 L 677.46764 225.711562 L 676.368925 228.700469 L 676.42097 228.902813 L 676.201227 229.382656 L 675.46104 229.642812 L 675.038902 229.619687 L 673.807185 228.492344 L 673.061215 228.278437 L 672.910864 227.648281 L 673.020736 226.041094 L 672.471379 225.127656 L 669.932769 223.740156 L 667.238026 221.369844 L 666.867932 221.207969 L 666.17979 221.3525 L 665.809696 221.809219 L 665.508995 223.930937 L 665.289252 224.300938 L 664.317757 225.168125 L 664.022839 225.861875 L 662.438376 226.821562 L 662.131893 227.31875 L 662.259112 228.492344 L 662.600292 229.879844 L 662.519334 230.960938 L 661.478446 231.700938 L 660.518516 232.007344 L 660.032769 232.562344 L 659.489194 232.539219 L 658.332652 233.088437 L 657.442114 234.389219 L 656.372313 235.291094 L 655.932827 236.048438 L 655.19264 238.060313 L 654.602804 239.072031 L 651.410748 240.667656 L 650.069159 241.627344 L 649.340537 243.772188 L 649.022488 244.072812 L 648.692874 244.188437 L 648.328563 244.072812 L 648.17243 243.777969 L 648.218692 243.217187 L 647.842815 242.552344 L 647.449591 242.477187 L 646.767231 242.679531 L 646.512792 242.991719 L 644.858937 246.980781 L 641.932886 248.1775 L 640.730082 247.142656 L 639.989895 246.807344 L 639.492582 246.807344 L 637.821379 247.859531 L 635.780082 248.189063 L 635.531425 248.061875 L 634.68715 248.189063 L 634.380666 248.391406 L 634.178271 248.830781 L 633.652044 249.362656 L 632.969685 249.692187 L 630.22868 250.339687 L 629.708236 250.570937 L 628.488084 251.709844 L 628.198949 252.218594 L 627.250584 252.929688 L 625.949474 254.317187 L 625.550467 254.860625 L 625.047371 256.421562 L 624.821846 256.699063 L 624.081659 257.080625 L 622.861507 257.4275 L 622.479848 257.369687 L 622.150234 257.491094 L 620.467465 258.919062 L 619.802453 260.0175 L 619.819801 260.537812 L 620.149416 261.08125 L 621.317523 261.838594 L 620.982126 262.850312 L 620.571554 263.058438 L 618.362558 262.711563 L 617.830549 262.942813 L 616.997839 262.9775 L 615.690946 263.330156 L 615.222547 263.312813 L 614.222138 262.728906 L 613.661215 262.590156 L 612.5625 262.717344 L 612.198189 262.601719 L 610.700467 262.919688 L 609.549708 263.607656 L 608.907827 265.509687 L 608.468341 266.012656 L 606.241998 267.267187 L 605.102804 270.111562 L 604.437792 270.568281 L 603.928914 270.510469 L 603.339077 269.932344 L 603.049942 269.810938 L 602.541063 269.972812 L 600.557593 273.042656 L 600.372547 275.748281 L 600.141238 276.118281 L 598.747605 277.291875 L 598.452687 279.089844 L 598.238727 279.228594 L 597.388668 279.078281 L 596.712091 279.540781 L 596.058645 280.402188 L 594.647664 281.772344 L 593.121028 283.79 L 592.380841 284.940469 L 591.900876 286.038906 L 590.241238 288.131719 L 589.5184 289.8025 L 589.368049 291.311406 L 589.20035 291.658281 L 587.870327 292.872344 L 586.037208 293.589219 L 585.002103 294.450625 L 589.859579 299.971719 L 593.329206 303.440469 L 598.250292 307.880469 L 602.957418 311.788594 L 603.581951 311.869531 L 606.612091 316.101406 L 606.108995 320.801562 L 605.247371 326.120313 L 604.24118 331.080625 L 604.252745 332.138594 L 604.39153 332.757187 L 604.888843 333.820938 L 604.640187 338.55 L 607.190362 338.769687 L 607.832243 338.717656 L 608.878914 339.087656 L 609.971846 339.000938 L 610.740946 338.752344 L 612.042056 339.05875 L 614.002395 339.099219 L 615.118458 339.717812 L 615.598423 339.318906 L 614.75993 337.197187 L 614.349357 336.780937 L 612.96729 336.509219 L 612.5625 336.087187 L 612.799591 335.237344 L 612.452629 334.659219 L 612.631893 334.040625 L 614.378271 334.277656 L 615.210981 334.219844 L 616.33861 333.150312 L 616.350175 332.242656 L 616.67979 331.687656 L 616.662442 330.479375 L 615.621554 329.652656 L 615.199416 329.149687 L 615.210981 328.317187 L 614.921846 327.507812 L 614.522839 327.160937 L 614.75993 326.311094 L 614.29153 326.120313 L 613.678563 324.050625 L 613.262208 323.547656 L 613.267991 322.720937 L 613.620736 322.310469 L 613.661215 321.547344 L 613.001986 320.980781 L 611.660397 319.130781 L 611.591005 318.80125 L 611.862792 318.159531 L 613.418341 317.107344 L 615.239895 316.870313 L 616.107301 317.037969 L 616.408002 316.962812 L 616.668224 316.691094 L 616.639311 316.511875 L 617.038318 315.760312 L 617.518283 315.529063 L 617.778505 314.257187 L 617.217582 313.031563 L 616.882185 311.898438 L 617.090362 308.389219 L 617.148189 308.07125 L 617.477804 307.678125 L 617.680199 306.73 L 619.5191 304.14 L 621.16139 303.937656 L 621.820619 304.267187 L 624.347664 304.9725 L 625.562033 305.122813 L 626.308002 305.862813 L 627.158061 307.568281 L 627.4125 308.759219 L 627.961857 309.539688 L 629.222488 310.441562 L 629.95111 311.320312 L 630.639252 311.430156 L 631.038259 311.638281 L 631.541355 312.939062 L 631.842056 313.349531 L 632.501285 313.499844 L 634.120444 313.39 L 635.05146 312.800313 L 636.450876 309.7825 L 636.901928 309.377813 L 637.607418 309.169688 L 639.04153 309.580156 L 639.342231 309.55125 L 640.27903 308.539531 L 641.389311 307.880469 L 641.817231 307.868906 L 643.407477 308.851719 L 643.621437 308.8575 L 644.80111 307.741719 L 645.558645 307.250313 L 647.588376 306.96125 L 648.421086 306.602812 L 649.479322 305.700938 L 650.907652 305.140156 L 653.290129 302.821875 L 653.602395 302.3825 L 653.879965 301.509531 L 654.371495 300.919844 L 654.961332 300.81 L 655.990654 301.220469 L 657.129848 301.399687 L 658.592874 300.457344 L 659.471846 300.07 L 660.188902 299.0525 L 661.831192 298.058125 L 663.028213 298.029219 L 663.710572 297.797969 L 664.080666 297.439531 L 664.589544 296.427813 L 664.60111 296.069375 L 664.311974 295.138594 L 664.462325 294.421719 L 665.138902 293.600781 L 665.167815 292.837656 L 665.468516 292.311562 L 665.190946 291.028125 L 665.300818 290.571406 L 665.682477 290.288125 L 666.081484 289.351562 L 666.630841 288.750313 L 667.931951 288.23 L 668.961273 288.478594 L 668.758879 288.062344 L 668.909229 287.177813 L 668.880315 285.431875 L 668.637442 283.102031 L 667.978213 281.760781 L 666.069918 279.141875 L 665.399124 271.840156 L 668.371437 267.729688 L 669.048014 265.79875 L 668.562266 264.792813 L 668.082301 264.232031 L 667.232243 263.67125 L 666.017874 262.220156 L 664.849766 262.09875 L 664.352453 261.578438 L 663.722138 260.11 L 663.317348 259.838281 L 662.010456 259.2775 L 660.940654 259.098281 L 659.969159 259.161875 L 659.448715 259.439375 L 658.62757 259.537656 L 657.690771 259.300625 L 656.441706 259.387344 L 655.81139 259.017344 L 655.649474 258.647344 L 655.481776 257.410156 L 655.562734 255.43875 L 655.840304 254.69875 L 656.250876 254.120625 L 657.51729 253.577188 L 658.211215 253.461562 L 659.489194 253.571406 L 661.148832 252.027813 L 662.449942 252.079844 L 663.3 251.680937 L 664.809287 250.218281 L 665.387558 249.322187 L 665.688259 249.090937 L 667.75847 247.957812 L 668.302044 247.801719 L 669.961682 246.668594 L 670.632477 245.327344 L 670.719217 243.118906 L 670.962091 242.6275 L 671.580841 242.037813 L 672.818341 241.482812 L 674.99264 239.962344 L 675.322255 238.748281 L 676.438318 237.950469 L 676.808411 237.528437 L 677.548598 236.002187 L 678.601051 234.921094 L 679.79229 234.34875 L 680.439953 234.3025 L 681.318925 234.620469 L 681.729498 234.608906 L 681.897196 234.418125 L 682.070678 233.597187 L 682.290421 233.400625 L 682.97278 233.857344 L 684.007886 234.221563 L 684.89264 234.227344 L 685.320561 234.082812 L 686.211098 233.180937 L 686.511799 232.672188 L 686.667932 230.851094 L 685.760047 229.272812 L 686.101227 228.370937 L 686.74889 227.711875 L 686.870327 226.977656 L 687.038026 226.688594 L 687.639428 226.399531 L 688.437442 226.399531 L 690.31104 227.440156 L 691.120619 227.6425 L 691.88972 227.6425 L 692.942173 227.122187 L 694.231717 226.017969 L 694.908294 225.717344 L 696.672021 223.907813 L 697.4816 223.601406 L 700.158995 221.040312 L 701.240362 220.629844 L 702.061507 220.600937 L 703.327921 220.907344 L 703.73271 220.28875 L 704.432418 219.751094 L 704.877687 219.571875 L 705.080082 219.288594 L 705.178388 217.721875 Z M 619.287792 268.700938 L 618.929264 269.157656 L 619.021787 269.8225 L 618.628563 269.770469 L 618.47243 269.880313 L 618.177512 270.5625 L 618.13125 271.042344 L 618.270035 271.377656 L 617.928855 271.632031 L 617.44889 272.377813 L 618.021379 273.129375 L 618.189077 273.678594 L 618.189077 274.568906 L 618.038727 275.118125 L 617.090362 276.262812 L 616.760748 276.488281 L 616.118867 276.580781 L 615.760339 276.332187 L 615.332418 275.401406 L 615.488551 274.990937 L 614.771495 274.759687 L 613.690129 274.667188 L 612.608762 275.540156 L 612.591414 276.02 L 612.018925 276.089375 L 611.330783 275.950625 L 611.157301 275.702031 L 610.798773 275.9275 L 610.64264 275.88125 L 610.307243 275.037188 L 609.827278 274.788594 L 609.497664 274.967812 L 609.208528 274.759687 L 608.277512 274.528437 L 608.190771 274.187344 L 608.312208 272.730469 L 608.450993 271.8575 L 608.902044 270.60875 L 609.00035 269.770469 L 610.197371 268.452344 L 610.341939 268.452344 L 610.440245 268.631562 L 611.469568 268.839688 L 612.302278 268.469688 L 612.5625 268.128594 L 612.770678 268.11125 L 614.372488 268.949531 L 614.939194 268.839688 L 615.488551 269.111406 L 615.852862 268.452344 L 616.558353 268.521719 L 617.258061 267.770156 L 617.859463 267.660312 L 618.241121 267.041719 L 618.692173 266.931875 L 618.732652 267.637187 L 619.24153 268.099688 Z M 619.287792 268.700938 " transform="matrix(0.675505,0,0,0.675676,0,0)"/>
	<path id="place14" title="Xorazm" class="land" d="M 282.311916 313.470937 L 281.051285 310.609219 L 280.530841 309.857656 L 279.842699 309.250625 L 279.541998 308.44125 L 279.380082 305.672031 L 278.917465 304.932031 L 278.657243 303.897187 L 277.442874 301.862188 L 277.35035 300.642344 L 277.512266 299.457187 L 277.442874 297.48 L 277.292523 297.000156 L 277.038084 294.15 L 277.269393 292.53125 L 277.04965 292.132344 L 276.540771 291.918437 L 276.361507 291.201563 L 276.378855 290.559844 L 276.08972 289.750469 L 275.349533 288.808125 L 273.880724 288.027656 L 273.308236 287.917812 L 272.857185 287.657656 L 272.562266 287.102656 L 272.747313 286.160312 L 272.37722 285.108125 L 271.90882 284.240937 L 270.688668 283.5125 L 268.809287 281.529531 L 267.681659 281.188438 L 266.18972 280.1825 L 264.159988 277.771719 L 263.680023 277.471094 L 262.407827 277.338125 L 261.748598 277.112656 L 261.26285 276.771563 L 260.852278 276.39 L 260.568925 275.441875 L 260.187266 274.719219 L 259.337208 274.0775 L 258.868808 274.071719 L 257.567699 274.638281 L 255.798189 274.499531 L 255.058002 274.279844 L 253.450409 273.377969 L 251.692465 273.088906 L 251.172021 273.129375 L 250.697839 273.441562 L 249.882477 274.91 L 249.940304 277.557813 L 249.489252 278.361406 L 249.211682 279.928125 L 248.777979 280.841563 L 248.431016 281.228906 L 247.939486 281.558438 L 246.892815 281.720312 L 246.742465 281.859062 L 245.071262 282.049844 L 244.741647 281.951563 L 243.417407 281.997813 L 243.220794 281.870625 L 242.937442 281.968906 L 242.237734 281.812813 L 239.138201 280.332812 L 237.010164 278.10125 L 236.668984 277.950938 L 234.662383 278.130156 L 233.338143 276.569219 L 228.428621 276.349531 L 228.012266 276.557656 L 226.971379 276.488281 L 224.791297 276.812031 L 222.212208 276.690625 L 220.529439 277.002813 L 216.597196 277.008594 L 211.838026 277.309219 L 210.959054 277.257187 L 208.362617 277.690781 L 207.40847 277.627187 L 206.691414 277.390156 L 203.447313 275.447656 L 200.53861 272.851875 L 194.432068 268.677813 L 191.060748 266.752656 L 189.898423 265.712031 L 189.331717 264.469063 L 189.308586 263.781094 L 189.470502 262.989062 L 189.510981 260.000156 L 189.788551 258.138594 L 190.17021 257.329219 L 192.309813 255.328906 L 192.55847 254.721875 L 192.55847 253.548281 L 192.292465 252.657969 L 191.159054 250.640312 L 190.008294 249.108281 L 188.157827 246.217656 L 187.781951 244.720313 L 188.302395 243.477344 L 188.857535 241.228437 L 189.100409 241.089687 L 189.412675 241.112812 L 190.308995 241.598437 L 191.309404 241.581094 L 193.292874 242.297969 L 194.397371 242.829844 L 195.681133 243.882031 L 196.872371 243.847344 L 197.647255 244.4775 L 198.4684 244.749219 L 198.728621 244.350313 L 199.457243 244.361875 L 199.717465 244.2 L 199.752161 243.760625 L 199.231717 243.061094 L 198.098306 242.170781 L 196.941764 240.852656 L 195.692699 240.280313 L 194.038843 239.910313 L 192.650993 239.037344 L 191.887675 238.1875 L 191.581192 237.470625 L 194.252804 232.238594 L 196.149533 231.38875 L 200.41139 230.00125 L 205.691005 231.122813 L 206.078446 231.602656 L 206.240362 232.180781 L 206.280841 234.822812 L 206.691414 237.268281 L 209.767815 242.662187 L 210.149474 243.130469 L 210.808703 243.777969 L 211.508411 244.090156 L 216.678154 248.9175 L 220.032126 252.819844 L 221.599241 254.32875 L 229.828037 261.642031 L 235.790012 266.180313 L 237.200993 266.758438 L 239.357944 267.122656 L 240.098131 267.411719 L 240.809404 268.01875 L 242.821787 270.290781 L 243.191881 271.157969 L 243.452103 272.32 L 245.701577 273.759531 L 247.187734 273.759531 L 247.910572 273.002187 L 248.419451 271.1175 L 249.587558 268.822344 L 250.368224 267.937813 L 251.761857 267.168906 L 252.380607 266.972344 L 255.422313 266.978125 L 264.368166 269.042031 L 267.889836 270.897812 L 270.972021 272.811406 L 278.969509 281.622031 L 280.467231 284.39125 L 285.02979 291.802813 L 285.301577 292.0225 L 285.949241 292.2075 L 288.499416 290.987656 L 291.737734 294.317656 L 297.647664 301.000781 L 298.330023 302.15125 L 298.30111 303.689062 L 297.508879 307.487344 L 292.917407 312.621094 L 286.637383 320.229219 Z M 282.311916 313.470937 " transform="matrix(0.675505,0,0,0.675676,0,0)"/>
	</g>
</svg>